HIERARCHY
ROOT Hips
{
	OFFSET 0.000000 97.167313 0.000000
	CHANNELS 6 Xposition Yposition Zposition Xrotation Yrotation Zrotation
	JOINT Spine
	{
		OFFSET 0.000000 13.784798 0.064400
		CHANNELS 3 Xrotation Yrotation Zrotation
		JOINT Spine1
		{
			OFFSET 0.000000 12.037903 0.404700
			CHANNELS 3 Xrotation Yrotation Zrotation
			JOINT Spine2
			{
				OFFSET 0.000000 17.795601 0.420200
				CHANNELS 3 Xrotation Yrotation Zrotation
				JOINT Neck
				{
					OFFSET 0.000000 39.131302 11.954600
					CHANNELS 3 Xrotation Yrotation Zrotation
					JOINT Head
					{
						OFFSET 0.000000 14.456192 15.627699
						CHANNELS 3 Xrotation Yrotation Zrotation
						JOINT HeadTop_End
						{
							OFFSET 0.000000 15.703506 7.603401
							CHANNELS 3 Xrotation Yrotation Zrotation
							End Site
							{
								OFFSET 0.000000 17.447403 0.000000
							}
						}
					}
				}
				JOINT LeftShoulder
				{
					OFFSET 17.399500 24.608795 1.168800
					CHANNELS 3 Xrotation Yrotation Zrotation
					JOINT LeftArm
					{
						OFFSET 18.980635 5.765305 1.818600
						CHANNELS 3 Xrotation Yrotation Zrotation
						JOINT LeftForeArm
						{
							OFFSET 49.290169 0.000000 0.000000
							CHANNELS 3 Xrotation Yrotation Zrotation
							JOINT LeftHand
							{
								OFFSET 31.562012 0.000000 0.000000
								CHANNELS 3 Xrotation Yrotation Zrotation
								JOINT LeftHandThumb1
								{
									OFFSET 6.133995 -4.388519 7.076070
									CHANNELS 3 Xrotation Yrotation Zrotation
									JOINT LeftHandThumb2
									{
										OFFSET 6.037666 -3.485840 3.485847
										CHANNELS 3 Xrotation Yrotation Zrotation
										JOINT LeftHandThumb3
										{
											OFFSET 6.496506 -3.750763 3.750761
											CHANNELS 3 Xrotation Yrotation Zrotation
											JOINT LeftHandThumb4
											{
												OFFSET 5.616882 -3.242905 3.242910
												CHANNELS 3 Xrotation Yrotation Zrotation
												End Site
												{
													OFFSET -1.254608 7.132141 0.375429
												}
											}
										}
									}
								}
								JOINT LeftHandPinky1
								{
									OFFSET 18.920792 -0.453171 -11.426712
									CHANNELS 3 Xrotation Yrotation Zrotation
									JOINT LeftHandPinky2
									{
										OFFSET 4.919586 0.000000 0.000000
										CHANNELS 3 Xrotation Yrotation Zrotation
										JOINT LeftHandPinky3
										{
											OFFSET 5.233047 0.000000 0.000000
											CHANNELS 3 Xrotation Yrotation Zrotation
											JOINT LeftHandPinky4
											{
												OFFSET 5.571716 0.000000 0.000000
												CHANNELS 3 Xrotation Yrotation Zrotation
												End Site
												{
													OFFSET -3.459808 4.342407 -0.466164
												}
											}
										}
									}
								}
								JOINT LeftHandRing1
								{
									OFFSET 22.726120 -0.094986 -6.500475
									CHANNELS 3 Xrotation Yrotation Zrotation
									JOINT LeftHandRing2
									{
										OFFSET 6.408615 0.000000 0.000000
										CHANNELS 3 Xrotation Yrotation Zrotation
										JOINT LeftHandRing3
										{
											OFFSET 6.150223 0.000000 0.000000
											CHANNELS 3 Xrotation Yrotation Zrotation
											JOINT LeftHandRing4
											{
												OFFSET 6.145386 0.000000 0.000000
												CHANNELS 3 Xrotation Yrotation Zrotation
												End Site
												{
													OFFSET -3.671402 4.923981 -0.202372
												}
											}
										}
									}
								}
								JOINT LeftHandMiddle1
								{
									OFFSET 23.373947 0.000000 0.000001
									CHANNELS 3 Xrotation Yrotation Zrotation
									JOINT LeftHandMiddle2
									{
										OFFSET 6.996567 0.000000 0.000000
										CHANNELS 3 Xrotation Yrotation Zrotation
										JOINT LeftHandMiddle3
										{
											OFFSET 7.015945 0.000000 0.000000
											CHANNELS 3 Xrotation Yrotation Zrotation
											JOINT LeftHandMiddle4
											{
												OFFSET 7.721573 0.000000 0.000000
												CHANNELS 3 Xrotation Yrotation Zrotation
												End Site
												{
													OFFSET -4.651108 6.158463 0.251582
												}
											}
										}
									}
								}
								JOINT LeftHandIndex1
								{
									OFFSET 21.310577 -0.490082 6.209344
									CHANNELS 3 Xrotation Yrotation Zrotation
									JOINT LeftHandIndex2
									{
										OFFSET 7.536453 0.000000 0.000000
										CHANNELS 3 Xrotation Yrotation Zrotation
										JOINT LeftHandIndex3
										{
											OFFSET 7.512344 0.000000 0.000000
											CHANNELS 3 Xrotation Yrotation Zrotation
											JOINT LeftHandIndex4
											{
												OFFSET 10.212402 0.000000 0.000001
												CHANNELS 3 Xrotation Yrotation Zrotation
												End Site
												{
													OFFSET -5.180801 8.690506 1.388433
												}
											}
										}
									}
								}
							}
						}
					}
				}
				JOINT RightShoulder
				{
					OFFSET -17.399500 24.608795 1.168800
					CHANNELS 3 Xrotation Yrotation Zrotation
					JOINT RightArm
					{
						OFFSET -18.980635 5.765305 1.818600
						CHANNELS 3 Xrotation Yrotation Zrotation
						JOINT RightForeArm
						{
							OFFSET -49.290169 0.000000 0.000000
							CHANNELS 3 Xrotation Yrotation Zrotation
							JOINT RightHand
							{
								OFFSET -31.562012 0.000000 0.000000
								CHANNELS 3 Xrotation Yrotation Zrotation
								JOINT RightHandThumb1
								{
									OFFSET -6.133995 -4.388519 7.076070
									CHANNELS 3 Xrotation Yrotation Zrotation
									JOINT RightHandThumb2
									{
										OFFSET -6.037666 -3.485840 3.485847
										CHANNELS 3 Xrotation Yrotation Zrotation
										JOINT RightHandThumb3
										{
											OFFSET -6.496506 -3.750763 3.750761
											CHANNELS 3 Xrotation Yrotation Zrotation
											JOINT RightHandThumb4
											{
												OFFSET -5.616882 -3.242905 3.242910
												CHANNELS 3 Xrotation Yrotation Zrotation
												End Site
												{
													OFFSET 1.254608 7.132141 0.375429
												}
											}
										}
									}
								}
								JOINT RightHandIndex1
								{
									OFFSET -21.310577 -0.490082 6.209344
									CHANNELS 3 Xrotation Yrotation Zrotation
									JOINT RightHandIndex2
									{
										OFFSET -7.536453 0.000000 0.000000
										CHANNELS 3 Xrotation Yrotation Zrotation
										JOINT RightHandIndex3
										{
											OFFSET -7.512344 0.000000 0.000000
											CHANNELS 3 Xrotation Yrotation Zrotation
											JOINT RightHandIndex4
											{
												OFFSET -10.212402 0.000000 0.000001
												CHANNELS 3 Xrotation Yrotation Zrotation
												End Site
												{
													OFFSET 5.180801 8.690506 1.388433
												}
											}
										}
									}
								}
								JOINT RightHandMiddle1
								{
									OFFSET -23.373947 0.000000 0.000001
									CHANNELS 3 Xrotation Yrotation Zrotation
									JOINT RightHandMiddle2
									{
										OFFSET -6.996567 0.000000 0.000000
										CHANNELS 3 Xrotation Yrotation Zrotation
										JOINT RightHandMiddle3
										{
											OFFSET -7.015945 0.000000 0.000000
											CHANNELS 3 Xrotation Yrotation Zrotation
											JOINT RightHandMiddle4
											{
												OFFSET -7.721573 0.000000 0.000000
												CHANNELS 3 Xrotation Yrotation Zrotation
												End Site
												{
													OFFSET 4.651108 6.158463 0.251582
												}
											}
										}
									}
								}
								JOINT RightHandRing1
								{
									OFFSET -22.726120 -0.094986 -6.500475
									CHANNELS 3 Xrotation Yrotation Zrotation
									JOINT RightHandRing2
									{
										OFFSET -6.408615 0.000000 0.000000
										CHANNELS 3 Xrotation Yrotation Zrotation
										JOINT RightHandRing3
										{
											OFFSET -6.150223 0.000000 0.000000
											CHANNELS 3 Xrotation Yrotation Zrotation
											JOINT RightHandRing4
											{
												OFFSET -6.145386 0.000000 0.000000
												CHANNELS 3 Xrotation Yrotation Zrotation
												End Site
												{
													OFFSET 3.671402 4.923981 -0.202372
												}
											}
										}
									}
								}
								JOINT RightHandPinky1
								{
									OFFSET -18.920792 -0.453171 -11.426712
									CHANNELS 3 Xrotation Yrotation Zrotation
									JOINT RightHandPinky2
									{
										OFFSET -4.919586 0.000000 0.000000
										CHANNELS 3 Xrotation Yrotation Zrotation
										JOINT RightHandPinky3
										{
											OFFSET -5.233047 0.000000 0.000000
											CHANNELS 3 Xrotation Yrotation Zrotation
											JOINT RightHandPinky4
											{
												OFFSET -5.571716 0.000000 0.000000
												CHANNELS 3 Xrotation Yrotation Zrotation
												End Site
												{
													OFFSET 3.459808 4.342407 -0.466164
												}
											}
										}
									}
								}
							}
						}
					}
				}
			}
		}
	}
	JOINT LeftUpLeg
	{
		OFFSET 19.899099 -7.885101 -3.429500
		CHANNELS 3 Xrotation Yrotation Zrotation
		JOINT LeftLeg
		{
			OFFSET 1.745560 -36.997807 10.304700
			CHANNELS 3 Xrotation Yrotation Zrotation
			JOINT LeftFoot
			{
				OFFSET -1.745558 -29.803308 -13.615400
				CHANNELS 3 Xrotation Yrotation Zrotation
				JOINT LeftToeBase
				{
					OFFSET 1.181900 -18.539904 15.226099
					CHANNELS 3 Xrotation Yrotation Zrotation
					JOINT LeftToe_End
					{
						OFFSET -0.863701 1.402801 16.534700
						CHANNELS 3 Xrotation Yrotation Zrotation
						End Site
						{
							OFFSET 0.000000 16.616566 0.000000
						}
					}
				}
			}
		}
	}
	JOINT RightUpLeg
	{
		OFFSET -19.899099 -7.885101 -3.429500
		CHANNELS 3 Xrotation Yrotation Zrotation
		JOINT RightLeg
		{
			OFFSET -1.745560 -36.997807 10.304700
			CHANNELS 3 Xrotation Yrotation Zrotation
			JOINT RightFoot
			{
				OFFSET 1.745558 -29.803308 -13.615400
				CHANNELS 3 Xrotation Yrotation Zrotation
				JOINT RightToeBase
				{
					OFFSET -1.181900 -18.539904 15.226099
					CHANNELS 3 Xrotation Yrotation Zrotation
					JOINT RightToe_End
					{
						OFFSET 0.863701 1.402801 16.534700
						CHANNELS 3 Xrotation Yrotation Zrotation
						End Site
						{
							OFFSET 0.000000 16.616566 0.000000
						}
					}
				}
			}
		}
	}
}
MOTION
Frames: 6
Frame Time: 0.033333
-2.152459 70.535172 -0.635264 13.039413 -59.771484 17.636091 13.636923 2.680441 -2.297226 11.494585 5.247512 -4.696963 -0.380967 6.100505 -3.520505 -6.837231 23.036135 -9.210920 -3.238659 30.195723 5.056855 0.000001 -0.000000 -0.000001 -8.382797 -19.347552 -14.461028 -13.481320 2.215736 -30.417411 -23.327939 -29.835608 -18.780193 -1.720600 -3.352504 5.762512 18.461323 -9.496173 13.213036 -1.115886 11.300517 -8.406079 5.762884 8.584119 -0.825969 -0.000001 -0.000000 0.000003 2.002104 6.811471 -12.501046 -0.800224 -0.116084 -14.483286 -2.332550 -0.131025 -37.607052 0.000000 -0.000002 -0.000001 3.007530 8.085994 -11.477486 -0.706726 -0.555371 -18.517037 -0.685026 -0.593851 -19.790716 -0.000001 0.000000 0.000003 1.887488 4.722056 -3.440266 0.485943 -0.969062 -12.175531 0.622291 -1.362882 -16.817326 0.000002 -0.000005 0.000008 -1.259485 -5.696771 1.401782 0.136238 -0.168069 -3.979763 0.061661 -0.394031 -6.381554 -0.000001 0.000003 0.000001 -14.168072 26.300238 15.801296 -0.886731 -34.765127 36.710569 -33.690977 63.007450 36.644293 0.482681 25.874326 8.809294 55.149560 18.649553 -29.698287 -0.442511 -14.180576 7.313159 21.666946 -29.244517 9.142365 -0.000000 -0.000001 -0.000001 5.673416 7.585033 36.844158 1.050478 3.824488 68.900257 0.499579 3.026043 62.196447 -0.000001 -0.000003 -0.000001 -0.125675 1.886096 45.000749 -1.169013 3.204677 68.417670 -0.936396 1.813634 41.107545 0.000001 -0.000001 -0.000004 -5.311994 1.216634 58.508821 -0.745185 1.667565 48.011285 -0.816485 1.840646 53.666548 0.000001 -0.000000 -0.000005 -7.756797 -9.376448 47.263987 -0.526036 1.541584 45.600556 -0.508197 0.803422 24.986623 -0.000003 -0.000002 0.000002 -59.002494 26.350260 49.655827 42.537021 -19.755829 -1.518338 5.241431 6.661870 -18.228144 -0.769543 -6.151413 1.371911 0.000000 0.000001 0.000000 -40.645561 7.543080 -34.813174 58.445990 14.382724 -6.613097 -26.495660 -1.332006 26.651492 0.455911 3.006846 1.597082 -0.000000 -0.000002 -0.000000 
-2.174101 70.695335 -0.540755 13.056741 -59.564707 17.551747 13.501619 2.711318 -2.287661 11.221771 5.310827 -4.671461 -0.655497 6.157235 -3.482263 -6.880119 23.738288 -9.376680 -2.426318 30.669882 4.696521 0.000000 0.000001 0.000001 -8.482128 -19.320182 -14.664725 -13.104922 2.346803 -30.390336 -23.320404 -29.766511 -18.797847 -1.553380 -3.334163 5.723803 18.459811 -9.504256 13.214694 -1.131695 11.279654 -8.403678 5.736908 8.537561 -0.823547 -0.000002 0.000001 -0.000002 2.007739 6.824734 -12.269900 -0.799430 -0.105027 -14.202231 -2.335269 -0.132727 -37.524055 -0.000002 0.000000 -0.000002 2.992101 8.100112 -11.298239 -0.702844 -0.538631 -18.104420 -0.682176 -0.583541 -19.552405 0.000001 0.000003 0.000000 1.877697 4.730962 -3.310314 0.492353 -0.945954 -11.784341 0.625177 -1.355375 -16.695953 -0.000002 -0.000002 0.000006 -1.240122 -5.690996 1.648473 0.137371 -0.150295 -3.586575 0.063461 -0.380479 -6.096144 -0.000003 -0.000000 -0.000001 -14.241394 26.302681 15.872197 -0.721400 -34.852994 36.994640 -33.118597 62.679936 35.953487 0.580464 25.803726 8.894936 55.149550 18.649553 -29.698287 -0.442509 -14.180581 7.313156 21.666943 -29.244520 9.142366 -0.000000 -0.000002 0.000002 5.673412 7.585039 36.844158 1.050476 3.824491 68.900257 0.499576 3.026042 62.196454 -0.000001 -0.000005 -0.000002 -0.125677 1.886097 45.000749 -1.169014 3.204671 68.417670 -0.936400 1.813637 41.107541 -0.000003 0.000001 -0.000004 -5.311998 1.216640 58.508821 -0.745184 1.667566 48.011281 -0.816492 1.840647 53.666548 -0.000003 0.000001 -0.000003 -7.756802 -9.376451 47.263987 -0.526034 1.541591 45.600556 -0.508200 0.803421 24.986625 -0.000003 -0.000001 0.000004 -59.016209 26.388888 49.447038 42.370529 -19.741142 -1.432060 5.285999 6.605638 -18.159139 -0.740070 -6.130839 1.318765 -0.000000 0.000000 0.000000 -40.235610 7.350760 -34.828415 58.029991 14.276811 -6.558708 -26.495849 -1.488813 26.721261 0.454992 2.999105 1.598429 -0.000000 0.000005 -0.000000 
-2.192865 70.828636 -0.446106 13.135979 -59.390933 17.523762 13.342265 2.748493 -2.262918 10.899660 5.388816 -4.617059 -0.980040 6.222341 -3.412630 -6.798154 24.407172 -9.575491 -1.615088 31.091537 4.370502 0.000002 0.000000 -0.000000 -8.524482 -19.272808 -14.772041 -12.710735 2.471050 -30.497802 -23.288712 -29.591497 -18.746938 -1.313275 -3.376864 5.675267 18.458711 -9.510080 13.215827 -1.142938 11.264882 -8.401949 5.718453 8.504490 -0.821831 -0.000001 0.000001 -0.000005 2.018215 6.830110 -12.160201 -0.799064 -0.099684 -14.067671 -2.337220 -0.134233 -37.484307 -0.000003 0.000002 -0.000002 2.982987 8.108879 -11.184419 -0.700426 -0.528025 -17.842122 -0.680361 -0.576932 -19.400891 -0.000001 -0.000001 0.000001 1.870687 4.737291 -3.218011 0.496843 -0.929582 -11.506404 0.627198 -1.350092 -16.609750 -0.000004 -0.000005 0.000004 -1.224792 -5.686579 1.840691 0.138230 -0.136459 -3.280213 0.064882 -0.369946 -5.873809 -0.000003 0.000000 -0.000001 -14.272790 26.271194 15.935347 -0.491127 -34.905535 37.289336 -32.602559 62.463214 35.303807 0.687911 25.619068 8.964603 55.149560 18.649557 -29.698287 -0.442508 -14.180589 7.313157 21.666946 -29.244520 9.142363 -0.000000 0.000000 0.000001 5.673416 7.585035 36.844161 1.050482 3.824488 68.900257 0.499578 3.026042 62.196447 -0.000000 -0.000003 -0.000002 -0.125672 1.886096 45.000749 -1.169018 3.204666 68.417670 -0.936400 1.813637 41.107541 -0.000001 0.000002 -0.000001 -5.311994 1.216638 58.508821 -0.745186 1.667564 48.011288 -0.816486 1.840645 53.666545 -0.000004 0.000002 -0.000003 -7.756799 -9.376454 47.263987 -0.526036 1.541588 45.600556 -0.508199 0.803424 24.986620 -0.000002 0.000001 0.000002 -59.052914 26.408085 49.283278 42.250570 -19.718869 -1.358305 5.300866 6.558921 -18.104332 -0.732244 -6.143868 1.305002 -0.000000 0.000000 -0.000000 -39.898898 7.204244 -34.837684 57.651591 14.163826 -6.493395 -26.470273 -1.644189 26.799381 0.454077 3.037464 1.599560 -0.000000 -0.000000 -0.000000 
-2.186133 70.946762 -0.358608 13.104077 -59.259035 17.465277 13.176266 2.767407 -2.273340 10.568199 5.423661 -4.639598 -1.312029 6.261057 -3.427354 -6.587016 25.036215 -9.782549 -0.826226 31.478914 4.039099 -0.000001 0.000000 0.000000 -8.498048 -19.205035 -14.753634 -12.300275 2.725276 -30.515363 -23.314134 -29.651542 -18.913743 -1.213562 -3.225439 5.614015 18.458110 -9.513249 13.216494 -1.149135 11.256696 -8.401041 5.708273 8.486251 -0.820900 -0.000002 -0.000001 0.000003 2.033646 6.826974 -12.181135 -0.798986 -0.100463 -14.090768 -2.338313 -0.135464 -37.491124 -0.000002 0.000000 -0.000002 2.980781 8.111858 -11.141684 -0.699553 -0.524022 -17.743194 -0.679611 -0.574353 -19.343750 -0.000001 0.000001 0.000002 1.866835 4.740777 -3.167114 0.499211 -0.920525 -11.353154 0.628327 -1.347126 -16.562184 0.000002 -0.000001 0.000008 -1.213898 -5.683688 1.970718 0.138677 -0.127050 -3.073050 0.065818 -0.362844 -5.723471 -0.000001 0.000000 -0.000001 -14.214822 26.226646 15.866779 -0.436700 -34.704406 37.784303 -31.818808 61.861973 34.368948 0.929579 25.520112 9.079773 55.149556 18.649555 -29.698291 -0.442512 -14.180578 7.313160 21.666943 -29.244514 9.142364 -0.000000 -0.000000 -0.000001 5.673419 7.585029 36.844165 1.050473 3.824481 68.900257 0.499577 3.026035 62.196447 -0.000003 0.000000 0.000001 -0.125672 1.886093 45.000749 -1.169015 3.204677 68.417670 -0.936399 1.813637 41.107548 0.000001 -0.000000 -0.000006 -5.311992 1.216636 58.508821 -0.745186 1.667561 48.011285 -0.816487 1.840646 53.666541 -0.000002 0.000001 0.000002 -7.756803 -9.376449 47.263990 -0.526033 1.541586 45.600556 -0.508197 0.803422 24.986625 0.000001 -0.000004 0.000002 -58.999051 26.482612 49.079332 42.148312 -19.697231 -1.306528 5.294519 6.537893 -18.023957 -0.730669 -6.128983 1.301952 -0.000000 0.000001 -0.000000 -39.625312 7.083827 -34.896150 57.341255 14.112542 -6.476684 -26.434582 -1.718674 26.875032 0.453140 2.935310 1.600622 -0.000000 0.000001 0.000000 
-2.200057 71.039902 -0.263176 13.063628 -59.057401 17.421724 13.032191 2.773622 -2.242138 10.276356 5.435006 -4.579591 -1.604855 6.259809 -3.366056 -6.310750 25.638047 -9.996600 -0.014326 31.829764 3.740729 -0.000001 -0.000000 -0.000000 -8.397391 -19.097439 -14.597521 -11.990707 2.790245 -30.797391 -23.243911 -29.300221 -18.844379 -1.098258 -3.341380 5.582523 18.458007 -9.513564 13.216550 -1.149821 11.255801 -8.400903 5.707141 8.484192 -0.820815 -0.000001 -0.000000 -0.000003 2.055488 6.813791 -12.353115 -0.799330 -0.108396 -14.295993 -2.338543 -0.136426 -37.551687 0.000002 -0.000003 0.000001 2.986330 8.108414 -11.178335 -0.700320 -0.527461 -17.826860 -0.680075 -0.576345 -19.392094 0.000001 -0.000000 0.000007 1.866398 4.741158 -3.161453 0.499513 -0.919541 -11.336104 0.628431 -1.346768 -16.556893 0.000001 -0.000003 0.000004 -1.207859 -5.682395 2.034046 0.138893 -0.122494 -2.972350 0.066292 -0.359369 -5.650301 -0.000006 0.000001 -0.000001 -14.083810 26.179024 15.712934 -0.301123 -34.651834 38.246618 -31.603152 61.728046 34.102086 1.236400 25.174571 9.030257 55.149563 18.649553 -29.698287 -0.442507 -14.180589 7.313155 21.666945 -29.244517 9.142362 0.000000 0.000000 -0.000000 5.673417 7.585040 36.844161 1.050472 3.824488 68.900264 0.499574 3.026038 62.196447 -0.000001 -0.000001 0.000001 -0.125673 1.886092 45.000749 -1.169013 3.204677 68.417670 -0.936397 1.813637 41.107545 0.000001 -0.000000 -0.000004 -5.311994 1.216636 58.508821 -0.745186 1.667561 48.011288 -0.816488 1.840645 53.666545 0.000000 0.000001 -0.000003 -7.756802 -9.376451 47.263984 -0.526033 1.541589 45.600556 -0.508196 0.803421 24.986625 -0.000002 -0.000001 0.000000 -59.053638 26.602492 48.865065 42.080676 -19.716152 -1.189280 5.308716 6.460215 -17.929385 -0.701124 -6.085630 1.250435 0.000000 0.000000 0.000000 -39.186486 7.084720 -35.044744 57.056730 14.039129 -6.346463 -26.520632 -1.893154 26.955956 0.452252 2.849367 1.601643 -0.000000 0.000001 -0.000000 
-2.196491 71.124786 -0.168259 13.107041 -58.942962 17.399273 12.871193 2.792122 -2.228729 9.952151 5.473561 -4.551014 -1.930294 6.291643 -3.329926 -5.910848 26.226427 -10.186292 0.796876 32.187977 3.397108 0.000001 0.000001 -0.000000 -8.222470 -18.957976 -14.307708 -11.647592 3.040159 -31.108974 -23.265380 -29.336421 -19.063080 -1.114906 -3.186207 5.660276 18.458516 -9.511053 13.216032 -1.144863 11.262315 -8.401648 5.715294 8.498725 -0.821561 -0.000001 0.000001 0.000000 2.090898 6.785676 -12.739205 -0.800340 -0.126387 -14.758968 -2.337864 -0.137446 -37.688291 0.000000 -0.000005 0.000002 3.001875 8.096990 -11.310461 -0.703124 -0.539776 -18.129764 -0.681971 -0.583688 -19.567027 0.000001 0.000002 0.000005 1.869472 4.738384 -3.202103 0.497625 -0.926764 -11.458459 0.627558 -1.349132 -16.594846 -0.000004 -0.000001 0.000009 -1.205044 -5.682541 2.045967 0.138934 -0.121632 -2.953634 0.066367 -0.358707 -5.636769 -0.000005 0.000001 0.000002 -13.873344 26.142802 15.448097 -0.263313 -34.581647 38.859470 -31.058755 61.285751 33.458453 1.558629 25.078529 9.129834 55.149563 18.649562 -29.698284 -0.442509 -14.180583 7.313157 21.666941 -29.244510 9.142366 -0.000000 -0.000001 0.000002 5.673419 7.585033 36.844165 1.050474 3.824484 68.900264 0.499582 3.026046 62.196447 -0.000000 0.000001 -0.000001 -0.125674 1.886090 45.000749 -1.169015 3.204675 68.417663 -0.936401 1.813634 41.107548 -0.000000 0.000000 -0.000008 -5.311994 1.216633 58.508821 -0.745185 1.667565 48.011288 -0.816489 1.840645 53.666545 -0.000002 -0.000000 -0.000003 -7.756799 -9.376453 47.263987 -0.526033 1.541589 45.600552 -0.508199 0.803424 24.986625 -0.000002 -0.000001 0.000000 -59.080535 26.631871 48.698706 42.092287 -19.694483 -1.055049 5.248205 6.451350 -17.897425 -0.752355 -6.120248 1.341263 0.000000 -0.000002 0.000000 -38.920952 7.042110 -35.128472 56.749566 13.971656 -6.197166 -26.458993 -2.001388 27.013938 0.451332 2.874405 1.602647 -0.000000 0.000002 0.000000 
